@startuml
!include style/er.plantuml

!define ENTITY entity

!define PRIMARY_KEY PK
!define FOREIGN_KEY FK

ENTITY Users {
  - username: STRING <<PRIMARY_KEY>>
  + password_digest: STRING
}

ENTITY RegistredUsers{
  + email: STRING
  + stato: STRING
}

ENTITY Codemonkeys {
  + biografia: STRING
  + rating: FLOAT
}

ENTITY Clienti {
}

ENTITY Admins {
}

ENTITY Collaborazioni {
  - id: INT <<PRIMARY_KEY>>
  - codemonkey: STRING <<FOREIGN_KEY>>
  - cliente: STRING <<FOREIGN_KEY>>
  + descrizione: STRING
  + data_proposta: DATETIME
  + data_inizio: DATETIME
  + data_fine: DATETIME
  + rating: FlOAT
  + commento: STRING
}

ENTITY Tags {
  - id: INT <<PRIMARY_KEY>>
  + nome: STRING
  + data_proposta: DATETIME
  + stato: STRING
}

ENTITY CodemonkeysTags {
  - codemonkey: STRING <<FOREIGN_KEY>>
  - tag: STRING <<FOREIGN_KEY>>
}

ENTITY CollaborazioniTags {
  - collaborazione: STRING <<FOREIGN_KEY>>
  - tag: STRING <<FOREIGN_KEY>>
}

ENTITY Segnalazioni {
  - id: INT <<PRIMARY_KEY>>
  - mittente: STRING <<FOREIGN_KEY>>
  - destinatatrio: STRING <<FOREIGN_KEY>>
  + motivazione: STRING
  + orario: DATETIME
}

note bottom of Segnalazioni
  Nella tabella Segnalazioni
  mittente e destinatario sono foreign key
  alle tabelle Clienti e Codemonkeys
  ma ci sono solo due casi:
  mittente <<FK>> Codemonkeys e destinatario <<FK>> Clienti
  mittente <<FK>> Clienti e destinatario <<FK>> Codemonkeys
end note


Users <|-- RegistredUsers
Users <|-- Admins
RegistredUsers <|-- Codemonkeys
RegistredUsers <|-- Clienti

Codemonkeys "1" --o "N" Collaborazioni
Clienti "1" --o "N" Collaborazioni

Codemonkeys "1" --o "N" CodemonkeysTags
Tags "1" --o "N" CodemonkeysTags

Collaborazioni "1" --o "N" CollaborazioniTags
Tags "1" --o "N" CollaborazioniTags

Codemonkeys "1" --o "N" Segnalazioni
Clienti "1" --o "N" Segnalazioni

@enduml
