@startuml
	enum TipoLog{
		REGISTRAZIONE
		LOGIN
		CANCELLA
		SETPASSWORD
		SETBIOGRAFIA
		SETIMMAGINEPROFILO
		SETTAGS
		SETEMAIL
		PROPONICOLLABORAZIONE
		MODIFICACOLLABORAZIONE
		ACCETTACOLLABORAZIONE
		RIFIUTACOLLABORAZIONE
		INTERROMPICOLLABORAZIONE
		TERMINACOLLABORAZIONE
		PROPONITAG
		APPROVATAG
		RIFIUTATAG
		SETUSERSTATUS
		SEGNALAZIONEUSER
	}

	class Log {
		user: RegistredUser
		tipo: TipoLog
		descrizione: String
		data: DateTime
	}

	class RegistredUser

	TipoLog -- Log
	Log -- RegistredUser
@enduml